<?xml version="1.0" encoding="UTF-8" standalone="no" ?>
<!DOCTYPE svg PUBLIC "-//W3C//DTD SVG 1.1//EN" "http://www.w3.org/Graphics/SVG/1.1/DTD/svg11.dtd">
<svg xmlns="http://www.w3.org/2000/svg" xmlns:xlink="http://www.w3.org/1999/xlink" version="1.1" width="140.561" height="140.561" xml:space="preserve">
<desc>Created with Fabric.js 1.6.0-rc.1</desc>
<defs></defs>
<g style="stroke: none; stroke-width: 1; stroke-dasharray: none; stroke-linecap: butt; stroke-linejoin: miter; stroke-miterlimit: 10; fill: none; fill-rule: nonzero; opacity: 1;" transform="translate(10 10) scale(0.42 0.42)" >
  <path d="M 8.939 44.696 h 178.784 c 4.943 0 8.939 -3.996 8.939 -8.939 V 8.939 c 0 -4.934 -3.996 -8.939 -8.939 -8.939 H 8.939 C 4.005 0 0 4.005 0 8.939 v 26.818 C 0 40.691 4.005 44.696 8.939 44.696 z M 277.115 80.453 H 8.939 C 4.005 80.453 0 84.457 0 89.392 v 26.818 c 0 4.943 4.005 8.939 8.939 8.939 h 268.176 c 4.943 0 8.939 -3.996 8.939 -8.939 V 89.392 C 286.054 84.457 282.058 80.453 277.115 80.453 z M 8.939 205.601 h 178.784 c 4.943 0 8.939 -3.996 8.939 -8.939 v -26.818 c 0 -4.943 -3.996 -8.939 -8.939 -8.939 H 8.939 c -4.934 0 -8.939 3.996 -8.939 8.939 v 26.818 C 0 201.605 4.005 205.601 8.939 205.601 z M 277.115 241.358 H 8.939 c -4.934 0 -8.939 3.996 -8.939 8.939 v 26.818 c 0 4.943 4.005 8.939 8.939 8.939 h 268.176 c 4.943 0 8.939 -3.996 8.939 -8.939 v -26.818 C 286.054 245.354 282.058 241.358 277.115 241.358 z" style="stroke: none; stroke-width: 1; stroke-dasharray: none; stroke-linecap: butt; stroke-linejoin: miter; stroke-miterlimit: 10; fill: #ff0054; fill-rule: nonzero; opacity: 1;" transform=" matrix(1 0 0 1 0 0) " stroke-linecap="round" />
</g>
</svg>